<?xml version="1.0" encoding="utf-8"?>
<!-- Generator: Adobe Illustrator 16.0.4, SVG Export Plug-In . SVG Version: 6.00 Build 0)  -->
<!DOCTYPE svg PUBLIC "-//W3C//DTD SVG 1.1//EN" "http://www.w3.org/Graphics/SVG/1.1/DTD/svg11.dtd">
<svg version="1.1" id="Layer_1" xmlns="http://www.w3.org/2000/svg" xmlns:xlink="http://www.w3.org/1999/xlink" x="0px" y="0px"
	 width="15px" height="16px" viewBox="0 0 15 16" enable-background="new 0 0 15 16" xml:space="preserve">
<g>
	
		<image overflow="visible" opacity="0.6" enable-background="new    " width="96" height="104" xlink:href="8101161C23EFF63C.png"  transform="matrix(0.23 0 0 0.2377 -2.5 -3.3145)">
	</image>
	<g>
		<g>
			<path opacity="0.8" fill="#FFFFFF" stroke="#000000" stroke-miterlimit="10" enable-background="new    " d="M3.9,9.4
				C3.3,8.6,3,7.6,3,6.6c0-2.4,2-4.4,4.4-4.4s4.4,2,4.4,4.4c0,1-0.3,1.9-0.899,2.7L7.4,13.4L3.9,9.4z"/>
			<path display="none" fill="#FFFFFF" d="M7.4,2.7c2.2,0,3.9,1.8,3.9,3.9c0,0.9-0.3,1.7-0.8,2.4l-3.1,3.7L4.3,9.1
				C3.8,8.4,3.5,7.5,3.5,6.6C3.5,4.5,5.3,2.7,7.4,2.7 M7.4,1.7c-2.7,0-4.9,2.2-4.9,4.9c0,1.1,0.4,2.1,1,3l3.1,3.7l0.8,0.9l0.8-0.9
				l3.1-3.6c0.7-0.9,1.101-2,1.101-3C12.5,3.9,10.2,1.7,7.4,1.7L7.4,1.7z"/>
			<circle fill="#154784" stroke="#154784" stroke-miterlimit="10" cx="7.4" cy="6.932" r="2.114"/>
		</g>
	</g>
</g>
</svg>
